<?xml version="1.0" encoding="iso-8859-1"?>
<!-- Generator: Adobe Illustrator 23.0.3, SVG Export Plug-In . SVG Version: 6.00 Build 0)  -->
<svg version="1.1" id="&#x421;&#x43B;&#x43E;&#x439;_1"
	 xmlns="http://www.w3.org/2000/svg" xmlns:xlink="http://www.w3.org/1999/xlink" x="0px" y="0px" viewBox="0 0 1500 203.814"
	 style="enable-background:new 0 0 1500 203.814;" xml:space="preserve">
<g>
	<g>
		<g>
			<path style="fill:#000002;" d="M1163.079,22.573c0-12.467-10.106-22.573-22.573-22.573h-70.613h-45.098h-93.186v22.525
				c0,12.467,10.106,22.573,22.573,22.573h70.613v158.716h45.098V45.098h93.186V22.573z"/>
			<path style="fill:#000002;" d="M372.752,21.32L258.745,203.806h53.166l99.101-158.59l99.101,158.59h53.166L449.271,21.32
				C431.604-6.96,390.42-6.96,372.752,21.32z"/>
			<path style="fill:#000002;" d="M815.289,133.757c30.458-6.587,53.284-33.672,53.284-66.101c0-37.358-30.285-67.643-67.643-67.643
				H625.403v22.543c0,12.45,10.093,22.543,22.543,22.543h152.999c12.45,0,22.543,10.093,22.543,22.543v0
				c0,12.45-10.093,22.543-22.543,22.543H666.897c-22.917,0-41.494,18.577-41.494,41.494v72.128h45.086v-68.507h77.583
				l79.368,68.507h69.034l-79.398-68.507L815.289,133.757z"/>
			<path style="fill:#000002;" d="M175.542,0.013H0l45.086,45.086h130.456c6.236,0,11.857,2.518,15.926,6.617
				c4.099,4.069,6.616,9.69,6.616,15.926c0,12.442-10.1,22.543-22.543,22.543H41.485C18.59,90.184,0,108.775,0,131.669v72.137
				h45.086v-68.507h130.456c37.357,0,67.628-30.272,67.628-67.629v-0.029C243.17,30.285,212.898,0.013,175.542,0.013z"/>
		</g>
		<g>
			
				<rect x="1423.164" y="25.844" transform="matrix(0.709 -0.7052 0.7052 0.709 398.7283 1020.1068)" style="fill:#000002;" width="24.595" height="2.114"/>
			<polygon style="fill:#000002;" points="1357.213,68.75 1343.361,82.528 1332.741,71.965 1331.25,73.464 1341.862,84.019 
				1338.552,87.311 1342.032,90.809 1433.331,0 1426.334,0 1360.711,65.27 1295.089,0 1288.092,0 			"/>
			<path style="fill:#000002;" d="M1221.423,203.811h6.996l87.113-86.645c4.267-4.244,6.617-9.896,6.617-15.915
				c0-6.019-2.35-11.672-6.617-15.917L1229.738,0h-6.997l89.312,88.832c3.33,3.312,5.163,7.722,5.163,12.418
				c0,4.696-1.834,9.105-5.163,12.417L1221.423,203.811z"/>
			<polygon style="fill:#000002;" points="1464.007,0 1461.009,0 1449.414,11.532 1450.905,13.031 			"/>
			
				<rect x="1425.408" y="154.352" transform="matrix(0.7052 -0.7091 0.7091 0.7052 302.4277 1060.582)" style="fill:#000002;" width="2.114" height="24.595"/>
			
				<rect x="1401.99" y="131.061" transform="matrix(0.7052 -0.709 0.709 0.7052 311.9659 1037.0221)" style="fill:#000002;" width="2.114" height="24.595"/>
			
				<rect x="1448.825" y="177.644" transform="matrix(0.7052 -0.7091 0.7091 0.7052 292.8172 1084.0537)" style="fill:#000002;" width="2.114" height="24.595"/>
			<path style="fill:#000002;" d="M1498.682,0h-6.997l-85.795,85.334c-0.004,0.004-0.007,0.008-0.011,0.011l-119.105,118.465h6.997
				l66.941-66.581l66.941,66.581h6.997l-70.439-70.061l13.839-13.765l9.555,9.504l1.491-1.499l-9.547-9.495l19.868-19.762
				c-0.092,0.831-0.144,1.67-0.144,2.518c0,6.018,2.35,11.67,6.617,15.915l87.113,86.645H1500l-90.63-90.144
				c-3.329-3.312-5.163-7.721-5.163-12.417c0-4.691,1.83-9.096,5.152-12.407L1498.682,0z"/>
			
				<rect x="1306.078" y="142.301" transform="matrix(0.709 -0.7052 0.7052 0.709 282.5494 971.4465)" style="fill:#000002;" width="24.595" height="2.114"/>
			
				<rect x="1282.661" y="165.593" transform="matrix(0.709 -0.7052 0.7052 0.709 259.3096 961.7103)" style="fill:#000002;" width="24.595" height="2.114"/>
			<polygon style="fill:#000002;" points="1262.49,2.091 1260.999,3.59 1278.437,20.935 1278.45,20.921 1293.935,36.323 
				1295.426,34.824 1277.988,17.479 1277.974,17.493 			"/>
			
				<rect x="1316.24" y="45.798" transform="matrix(0.7052 -0.7091 0.7091 0.7052 347.2112 951.1689)" style="fill:#000002;" width="2.114" height="24.595"/>
			
				<rect x="1259.244" y="188.884" transform="matrix(0.709 -0.7052 0.7052 0.709 236.0698 951.9742)" style="fill:#000002;" width="24.595" height="2.114"/>
			
				<rect x="1329.495" y="119.01" transform="matrix(0.709 -0.7052 0.7052 0.709 305.7892 981.1826)" style="fill:#000002;" width="24.595" height="2.114"/>
			
				<rect x="1399.747" y="49.135" transform="matrix(0.709 -0.7052 0.7052 0.709 375.4892 1010.3706)" style="fill:#000002;" width="24.595" height="2.114"/>
			
				<rect x="1376.33" y="72.427" transform="matrix(0.709 -0.7052 0.7052 0.709 352.2501 1000.6345)" style="fill:#000002;" width="24.595" height="2.114"/>
			
				<rect x="1352.912" y="95.718" transform="matrix(0.709 -0.7052 0.7052 0.709 329.0289 990.9188)" style="fill:#000002;" width="24.595" height="2.114"/>
		</g>
	</g>
</g>
</svg>
