<?xml version="1.0" encoding="iso-8859-1"?>
<!-- Generator: Adobe Illustrator 23.0.3, SVG Export Plug-In . SVG Version: 6.00 Build 0)  -->
<svg version="1.1" id="&#x421;&#x43B;&#x43E;&#x439;_1"
	 xmlns="http://www.w3.org/2000/svg" xmlns:xlink="http://www.w3.org/1999/xlink" x="0px" y="0px" viewBox="0 0 1500 1097.423"
	 style="enable-background:new 0 0 1500 1097.423;" xml:space="preserve">
<g>
	<g>
		
			<rect x="1086.276" y="139.156" transform="matrix(0.709 -0.7052 0.7052 0.709 233.2121 854.8791)" style="fill:#000002;" width="132.432" height="11.385"/>
		<polygon style="fill:#000002;" points="731.162,370.185 656.574,444.372 599.392,387.498 591.364,395.57 648.502,452.401 
			630.682,470.125 649.418,488.961 1141.019,0 1103.345,0 749.999,351.449 396.653,0 358.979,0 		"/>
		<path style="fill:#000002;" d="M0,1097.423h37.673l469.062-466.544c22.976-22.854,35.632-53.287,35.632-85.692
			c0.002-32.409-12.654-62.846-35.632-85.703L44.772,0H7.098l480.901,478.32c17.928,17.832,27.802,41.578,27.8,66.864
			c0,25.285-9.874,49.028-27.8,66.86L0,1097.423z"/>
		<polygon style="fill:#000002;" points="1306.194,0 1290.05,0 1227.62,62.094 1235.648,70.166 		"/>
		
			<rect x="1098.356" y="831.111" transform="matrix(0.7052 -0.7091 0.7091 0.7052 -310.7296 1047.4106)" style="fill:#000002;" width="11.385" height="132.435"/>
		
			<rect x="972.266" y="705.698" transform="matrix(0.7052 -0.709 0.709 0.7052 -258.9937 920.9274)" style="fill:#000002;" width="11.385" height="132.435"/>
		
			<rect x="1224.446" y="956.525" transform="matrix(0.7052 -0.7091 0.7091 0.7052 -362.4775 1173.7939)" style="fill:#000002;" width="11.385" height="132.435"/>
		<path style="fill:#000002;" d="M1492.905,0h-37.677L993.263,459.484c-0.02,0.02-0.038,0.041-0.058,0.06l-641.323,637.879h37.674
			l360.442-358.507l360.445,358.507h37.674L768.836,720.18l74.518-74.118l51.449,51.172l8.028-8.073l-51.406-51.128l106.981-106.406
			c-0.496,4.472-0.774,8.993-0.774,13.559c0.002,32.405,12.656,62.838,35.632,85.692l469.063,466.544H1500l-488.001-485.38
			c-17.926-17.832-27.798-41.575-27.8-66.86c0-25.257,9.853-48.979,27.742-66.803L1492.905,0z"/>
		
			<rect x="455.824" y="766.223" transform="matrix(0.709 -0.7052 0.7052 0.709 -392.447 592.7747)" style="fill:#000002;" width="132.435" height="11.385"/>
		
			<rect x="329.734" y="891.636" transform="matrix(0.709 -0.7052 0.7052 0.709 -517.5818 540.3503)" style="fill:#000002;" width="132.435" height="11.385"/>
		<polygon style="fill:#000002;" points="221.121,11.257 213.093,19.329 306.99,112.723 307.062,112.651 390.443,195.584 
			398.471,187.511 304.573,94.117 304.501,94.19 		"/>
		
			<rect x="510.543" y="246.6" transform="matrix(0.7052 -0.7091 0.7091 0.7052 -69.5925 458.2741)" style="fill:#000002;" width="11.385" height="132.432"/>
		
			<rect x="203.644" y="1017.05" transform="matrix(0.709 -0.7052 0.7052 0.709 -642.7167 487.9259)" style="fill:#000002;" width="132.435" height="11.385"/>
		
			<rect x="581.914" y="640.809" transform="matrix(0.709 -0.7052 0.7052 0.709 -267.3121 645.1992)" style="fill:#000002;" width="132.435" height="11.385"/>
		
			<rect x="960.185" y="264.57" transform="matrix(0.709 -0.7052 0.7052 0.709 108.0808 802.4547)" style="fill:#000002;" width="132.432" height="11.385"/>
		
			<rect x="834.095" y="389.983" transform="matrix(0.709 -0.7052 0.7052 0.709 -17.0506 750.0303)" style="fill:#000002;" width="132.432" height="11.385"/>
		
			<rect x="708.004" y="515.395" transform="matrix(0.709 -0.7052 0.7052 0.709 -142.1772 697.6236)" style="fill:#000002;" width="132.435" height="11.385"/>
	</g>
</g>
</svg>
