<svg width="2016" height="640" viewBox="0 0 2016 640" fill="none" xmlns="http://www.w3.org/2000/svg">
<g clip-path="url(#clip0_4011_186)">
<g>
<path d="M1679.07 293.85L1695.78 276.68L1612.41 191H1620.85L1700 272.343L1704.22 276.68L1677.47 304.171L1673.27 299.811L1677.27 295.709L1664.47 282.555L1666.26 280.687L1679.07 293.85Z" fill="rgba(243,243,242,0.38)"/>
<path d="M1532 445H1540.44L1645.51 337.018C1650.66 331.728 1653.49 324.684 1653.49 317.184C1653.49 309.683 1650.66 302.638 1645.51 297.348L1542.03 191H1533.59L1641.31 301.708C1645.33 305.835 1647.54 311.331 1647.54 317.184C1647.54 323.036 1645.33 328.531 1641.31 332.658L1532 445Z" fill="rgba(243,243,242,0.38)"/>
<path d="M1769.71 386.946L1767.91 388.814L1788.95 410.43L1790.74 408.562L1769.71 386.946Z" fill="rgba(243,243,242,0.38)"/>
<path d="M1741.44 357.917L1739.64 359.785L1760.68 381.401L1762.48 379.533L1741.44 357.917Z" fill="rgba(243,243,242,0.38)"/>
<path d="M1797.96 415.973L1796.16 417.842L1817.19 439.458L1818.99 437.589L1797.96 415.973Z" fill="rgba(243,243,242,0.38)"/>
<path d="M1619.26 445H1610.82L1739 313L1743.5 318L1743 318.5L1722.72 338.674L1734.23 350.507L1732.44 352.376L1720.91 340.532L1704.22 357.687L1789.18 445H1780.74L1700 362.023L1619.26 445Z" fill="rgba(243,243,242,0.38)"/>
<path d="M1658.55 357.919L1637.52 379.535L1639.32 381.403L1660.35 359.787L1658.55 357.919Z" fill="rgba(243,243,242,0.38)"/>
<path d="M1630.31 386.947L1609.28 408.562L1611.07 410.431L1632.11 388.815L1630.31 386.947Z" fill="rgba(243,243,242,0.38)"/>
<path d="M1581.53 193.605L1579.73 195.474L1600.77 217.09L1600.78 217.073L1619.46 236.268L1621.26 234.4L1600.22 212.784L1600.21 212.8L1581.53 193.605Z" fill="rgba(243,243,242,0.38)"/>
<path d="M1638.03 251.659L1636.23 253.527L1657.26 275.143L1659.06 273.274L1638.03 251.659Z" fill="rgba(243,243,242,0.38)"/>
<path d="M1602.06 415.974L1581.03 437.59L1582.83 439.458L1603.86 417.842L1602.06 415.974Z" fill="rgba(243,243,242,0.38)"/>
<path d="M1686.8 328.892L1665.76 350.508L1667.56 352.376L1688.59 330.76L1686.8 328.892Z" fill="rgba(243,243,242,0.38)"/>
<path d="M1715.04 299.866L1694.01 321.482L1695.81 323.351L1716.84 301.735L1715.04 299.866Z" fill="rgba(243,243,242,0.38)"/>
</g>
</g>
<g clip-path="url(#clip1_4011_186)">
<g>
<path d="M1799.77 212.525L1778.74 233.885L1780.54 235.731L1801.57 214.371L1799.77 212.525Z" fill="rgba(190,32,39,0.5)"/>
<path d="M1779.15 191H1787.59L1704 277L1699.5 272L1779.15 191Z" fill="rgba(190,32,39,0.5)"/>
<path d="M1824.59 191H1820.97L1806.99 205.202L1808.78 207.048L1824.59 191Z" fill="rgba(190,32,39,0.5)"/>
<path d="M1859.15 191.5L1867.59 192.001L1754 307.501C1753.64 311 1753.64 316.693 1753.64 316.693C1753.64 317.123 1753.65 317.567 1753.69 318.022C1754 322.634 1755.84 328.452 1758.51 332.5C1759.13 333.442 1759.8 334.287 1760.5 335L1867 445L1860.74 443L1755.67 336.294C1755.1 335.716 1754.56 335.118 1754.05 334.5C1750.21 329.859 1748 324.122 1747.72 318.022C1747.7 317.581 1747.69 317.139 1747.69 316.694C1747.69 315.672 1747.75 314.66 1747.85 313.659L1743.5 318.022L1739 313L1859.15 191.5Z" fill="rgba(190,32,39,0.5)"/>
<path d="M1758.5 332.5L1871.5 448L1866.5 450L1754 334.5L1758.5 332.5Z" fill="rgba(243,243,242,0.38)"/>
<path d="M1771.53 241.208L1750.5 262.568L1752.29 264.415L1773.33 243.054L1771.53 241.208Z" fill="rgba(190,32,39,0.5)"/>
<path d="M1743.28 269.892L1722.25 291.252L1724.05 293.098L1745.08 271.738L1743.28 269.892Z" fill="rgba(190,32,39,0.5)"/>
</g>
</g>
<path d="M1494.3 220.607C1494.3 205.061 1481.96 192.459 1466.73 192.459H1380.48H1325.4H1211.58V220.548C1211.58 236.094 1223.92 248.696 1239.15 248.696H1325.4V446.613H1380.48V248.696H1494.3V220.607Z" fill="rgba(243,243,242,0.14)"/>
<path d="M528.982 219.045L389.73 446.604H454.668L575.712 248.844L696.756 446.604H761.694L622.444 219.045C600.865 183.782 550.562 183.782 528.982 219.045Z" fill="rgba(243,243,242,0.14)"/>
<path d="M528.982 219.045L389.73 446.604H454.668L575.712 248.844L696.756 446.604H761.694L622.444 219.045C600.865 183.782 550.562 183.782 528.982 219.045Z" fill="rgba(243,243,242,0.14)"/>
<path d="M1069.51 359.252C1106.71 351.038 1134.59 317.262 1134.59 276.824C1134.59 230.238 1097.6 192.475 1051.97 192.475H837.574V220.586C837.574 236.111 849.902 248.697 865.109 248.697H1051.99C1067.19 248.697 1079.52 261.283 1079.52 276.808C1079.52 292.333 1067.19 304.919 1051.99 304.919H888.256C860.265 304.919 837.574 328.084 837.574 356.662V446.604H892.644V361.178H987.405L1084.35 446.604H1168.67L1071.69 361.178L1069.51 359.252Z" fill="rgba(243,243,242,0.14)"/>
<path d="M288.104 192.475H73.6934L128.761 248.695H288.103C295.719 248.695 302.585 251.835 307.556 256.947C312.561 262.022 315.636 269.031 315.636 276.806C315.636 292.322 303.3 304.917 288.102 304.917H124.363C96.4 304.917 73.6934 328.099 73.6934 356.648V446.603H128.761V361.176H288.103C333.731 361.176 370.706 323.428 370.706 276.845V276.808C370.707 230.223 333.732 192.475 288.104 192.475Z" fill="rgba(243,243,242,0.14)"/>
<defs>
<filter id="filter0_d_4011_186" x="1521.2" y="184.2" width="308.592" height="275.6" filterUnits="userSpaceOnUse" color-interpolation-filters="sRGB">
<feFlood flood-opacity="0" result="BackgroundImageFix"/>
<feColorMatrix in="SourceAlpha" type="matrix" values="0 0 0 0 0 0 0 0 0 0 0 0 0 0 0 0 0 0 127 0" result="hardAlpha"/>
<feOffset dy="4"/>
<feGaussianBlur stdDeviation="5.4"/>
<feComposite in2="hardAlpha" operator="out"/>
<feColorMatrix type="matrix" values="0 0 0 0 0 0 0 0 0 0 0 0 0 0 0 0 0 0 0.59 0"/>
<feBlend mode="normal" in2="BackgroundImageFix" result="effect1_dropShadow_4011_186"/>
<feBlend mode="normal" in="SourceGraphic" in2="effect1_dropShadow_4011_186" result="shape"/>
</filter>
<filter id="filter1_d_4011_186" x="1693.1" y="188.6" width="184.8" height="271.8" filterUnits="userSpaceOnUse" color-interpolation-filters="sRGB">
<feFlood flood-opacity="0" result="BackgroundImageFix"/>
<feColorMatrix in="SourceAlpha" type="matrix" values="0 0 0 0 0 0 0 0 0 0 0 0 0 0 0 0 0 0 127 0" result="hardAlpha"/>
<feOffset dy="4"/>
<feGaussianBlur stdDeviation="3.2"/>
<feComposite in2="hardAlpha" operator="out"/>
<feColorMatrix type="matrix" values="0 0 0 0 0 0 0 0 0 0 0 0 0 0 0 0 0 0 0.39 0"/>
<feBlend mode="normal" in2="BackgroundImageFix" result="effect1_dropShadow_4011_186"/>
<feBlend mode="normal" in="SourceGraphic" in2="effect1_dropShadow_4011_186" result="shape"/>
</filter>
<linearGradient id="paint0_linear_4011_186" x1="1212" y1="218.5" x2="1490.3" y2="253.203" gradientUnits="userSpaceOnUse">
<stop stop-color="#1F302C"/>
<stop offset="0.480769" stop-color="#244F47"/>
<stop offset="1" stop-color="#1F302C"/>
</linearGradient>
<linearGradient id="paint1_linear_4011_186" x1="389.73" y1="192.598" x2="626.316" y2="539.051" gradientUnits="userSpaceOnUse">
<stop stop-color="#F5842A"/>
<stop offset="0.09" stop-color="#785322"/>
<stop offset="0.22" stop-color="#1F302C"/>
<stop offset="0.58" stop-color="#191E1D"/>
<stop offset="1" stop-color="#1F302C"/>
</linearGradient>
<radialGradient id="paint2_radial_4011_186" cx="0" cy="0" r="1" gradientTransform="matrix(420 217.5 -328.412 299.379 503.5 285.5)" gradientUnits="userSpaceOnUse">
<stop stop-color="#F5842A" stop-opacity="0.93"/>
<stop offset="0.09" stop-color="#785322"/>
<stop offset="0.22" stop-color="#1F302C"/>
<stop offset="0.36176" stop-color="#183731"/>
<stop offset="1" stop-color="#1F302C"/>
</radialGradient>
<radialGradient id="paint3_radial_4011_186" cx="0" cy="0" r="1" gradientTransform="matrix(472 -1.30815e-05 -122.035 455.951 838 320)" gradientUnits="userSpaceOnUse">
<stop stop-color="#F5842A"/>
<stop offset="0.09" stop-color="#785322"/>
<stop offset="0.22" stop-color="#1F302C"/>
<stop offset="0.58" stop-color="#1F443D"/>
<stop offset="1" stop-color="#1F302C"/>
</radialGradient>
<linearGradient id="paint4_linear_4011_186" x1="73.6934" y1="192.475" x2="324.763" y2="485.912" gradientUnits="userSpaceOnUse">
<stop stop-color="#F5842A"/>
<stop offset="0.09" stop-color="#785322"/>
<stop offset="0.22" stop-color="#1F302C"/>
<stop offset="0.58" stop-color="#244F47"/>
<stop offset="1" stop-color="#1F302C"/>
</linearGradient>
<clipPath id="clip0_4011_186">
<rect width="336" height="254" fill="white" transform="translate(1532 191)"/>
</clipPath>
<clipPath id="clip1_4011_186">
<rect width="336" height="251" fill="white" transform="translate(1532 190)"/>
</clipPath>
</defs>
</svg>
