<svg xmlns="http://www.w3.org/2000/svg" viewBox="0 0 1024 1024"><defs><radialGradient id="pxface" cx="50%" cy="50%" r="72%"><stop offset="0" stop-color="#F49A47"/><stop offset=".55" stop-color="#EE8731"/><stop offset="1" stop-color="#D96F22"/></radialGradient></defs><path fill="url(#pxface)" fill-rule="nonzero" stroke="rgba(72,32,6,.38)" stroke-width="2.5" d="M892.57 410.03A394 394 0 0 1 894.85 418.93Q896.66 426.72 904.18 429.46L947.9 445.37Q955.42 448.1 956.49 456.03A448 448 0 0 1 956.49 567.97Q955.42 575.9 947.9 578.63L904.18 594.54Q896.66 597.28 894.85 605.07A394 394 0 0 1 892.57 613.97A394 394 0 0 1 890.09 622.82Q887.76 630.48 892.91 636.61L922.82 672.24Q927.96 678.37 924.92 685.77A448 448 0 0 1 868.95 782.72Q864.06 789.05 856.19 787.66L810.37 779.57Q802.49 778.18 797.02 784.03A394 394 0 0 1 790.6 790.6A394 394 0 0 1 784.03 797.02Q778.18 802.49 779.57 810.37L787.66 856.19Q789.05 864.06 782.72 868.95A448 448 0 0 1 685.77 924.92Q678.37 927.96 672.24 922.82L636.61 892.91Q630.48 887.76 622.82 890.09A394 394 0 0 1 613.97 892.57A394 394 0 0 1 605.07 894.85Q597.28 896.66 594.54 904.18L578.63 947.9Q575.9 955.42 567.97 956.49A448 448 0 0 1 456.03 956.49Q448.1 955.42 445.37 947.9L429.46 904.18Q426.72 896.66 418.93 894.85A394 394 0 0 1 410.03 892.57A394 394 0 0 1 401.18 890.09Q393.52 887.76 387.39 892.91L351.76 922.82Q345.63 927.96 338.23 924.92A448 448 0 0 1 241.28 868.95Q234.95 864.06 236.34 856.19L244.43 810.37Q245.82 802.49 239.97 797.02A394 394 0 0 1 233.4 790.6A394 394 0 0 1 226.98 784.03Q221.51 778.18 213.63 779.57L167.81 787.66Q159.94 789.05 155.05 782.72A448 448 0 0 1 99.08 685.77Q96.04 678.37 101.18 672.24L131.09 636.61Q136.24 630.48 133.91 622.82A394 394 0 0 1 131.43 613.97A394 394 0 0 1 129.15 605.07Q127.34 597.28 119.82 594.54L76.1 578.63Q68.58 575.9 67.51 567.97A448 448 0 0 1 67.51 456.03Q68.58 448.1 76.1 445.37L119.82 429.46Q127.34 426.72 129.15 418.93A394 394 0 0 1 131.43 410.03A394 394 0 0 1 133.91 401.18Q136.24 393.52 131.09 387.39L101.18 351.76Q96.04 345.63 99.08 338.23A448 448 0 0 1 155.05 241.28Q159.94 234.95 167.81 236.34L213.63 244.43Q221.51 245.82 226.98 239.97A394 394 0 0 1 233.4 233.4A394 394 0 0 1 239.97 226.98Q245.82 221.51 244.43 213.63L236.34 167.81Q234.95 159.94 241.28 155.05A448 448 0 0 1 338.23 99.08Q345.63 96.04 351.76 101.18L387.39 131.09Q393.52 136.24 401.18 133.91A394 394 0 0 1 410.03 131.43A394 394 0 0 1 418.93 129.15Q426.72 127.34 429.46 119.82L445.37 76.1Q448.1 68.58 456.03 67.51A448 448 0 0 1 567.97 67.51Q575.9 68.58 578.63 76.1L594.54 119.82Q597.28 127.34 605.07 129.15A394 394 0 0 1 613.97 131.43A394 394 0 0 1 622.82 133.91Q630.48 136.24 636.61 131.09L672.24 101.18Q678.37 96.04 685.77 99.08A448 448 0 0 1 782.72 155.05Q789.05 159.94 787.66 167.81L779.57 213.63Q778.18 221.51 784.03 226.98A394 394 0 0 1 790.6 233.4A394 394 0 0 1 797.02 239.97Q802.49 245.82 810.37 244.43L856.19 236.34Q864.06 234.95 868.95 241.28A448 448 0 0 1 924.92 338.23Q927.96 345.63 922.82 351.76L892.91 387.39Q887.76 393.52 890.09 401.18A394 394 0 0 1 892.57 410.03ZM878 512 A366 366 0 1 0 146 512 A366 366 0 1 0 878 512 ZM624 512 A112 112 0 1 1 400 512 A112 112 0 1 1 624 512 ZM596 512 A84 84 0 1 0 428 512 A84 84 0 1 0 596 512 ZM610.03 558.21L836.93 689.21L827.93 704.79L601.03 573.79ZM521 620L521 882L503 882L503 620ZM422.97 573.79L196.07 704.79L187.07 689.21L413.97 558.21ZM413.97 465.79L187.07 334.79L196.07 319.21L422.97 450.21ZM503 404L503 142L521 142L521 404ZM601.03 450.21L827.93 319.21L836.93 334.79L610.03 465.79ZM617.5 512 A6.5 6.5 0 1 0 604.5 512 A6.5 6.5 0 1 0 617.5 512 ZM568 597.74 A6.5 6.5 0 1 0 555 597.74 A6.5 6.5 0 1 0 568 597.74 ZM469 597.74 A6.5 6.5 0 1 0 456 597.74 A6.5 6.5 0 1 0 469 597.74 ZM419.5 512 A6.5 6.5 0 1 0 406.5 512 A6.5 6.5 0 1 0 419.5 512 ZM469 426.26 A6.5 6.5 0 1 0 456 426.26 A6.5 6.5 0 1 0 469 426.26 ZM568 426.26 A6.5 6.5 0 1 0 555 426.26 A6.5 6.5 0 1 0 568 426.26 ZM520 432L520 416L504 416L504 432Z"/><circle cx="512" cy="512" r="386" fill="none" stroke="rgba(60,26,5,.22)" stroke-width="2"/><circle cx="512" cy="512" r="375" fill="none" stroke="rgba(255,235,210,.14)" stroke-width="2"/><circle cx="512" cy="512" r="107" fill="none" stroke="rgba(60,26,5,.2)" stroke-width="1.5"/></svg>