<svg xmlns="http://www.w3.org/2000/svg" viewBox="0 0 1024 1024"><defs><radialGradient id="pxface" cx="50%" cy="50%" r="72%"><stop offset="0" stop-color="#F49A47"/><stop offset=".55" stop-color="#EE8731"/><stop offset="1" stop-color="#D96F22"/></radialGradient></defs><path fill="url(#pxface)" fill-rule="nonzero" stroke="rgba(72,32,6,.38)" stroke-width="2.5" d="M850.56 421.28A350.5 350.5 0 0 1 856.23 445.98Q857.64 453.85 865.45 455.61L924.68 469.01Q932.48 470.77 933.19 478.74A422.5 422.5 0 0 1 933.19 545.26Q932.48 553.23 924.68 554.99L865.45 568.39Q857.64 570.15 856.23 578.02A350.5 350.5 0 0 1 850.56 602.72A350.5 350.5 0 0 1 843.12 626.93Q840.41 634.46 846.29 639.89L890.89 681.11Q896.76 686.54 893.39 693.79A422.5 422.5 0 0 1 860.13 751.4Q855.54 757.95 847.9 755.57L789.9 737.55Q782.26 735.18 777.1 741.29A350.5 350.5 0 0 1 759.84 759.84A350.5 350.5 0 0 1 741.29 777.1Q735.18 782.26 737.55 789.9L755.57 847.9Q757.95 855.54 751.4 860.13A422.5 422.5 0 0 1 693.79 893.39Q686.54 896.76 681.11 890.89L639.89 846.29Q634.46 840.41 626.93 843.12A350.5 350.5 0 0 1 602.72 850.56A350.5 350.5 0 0 1 578.02 856.23Q570.15 857.64 568.39 865.45L554.99 924.68Q553.23 932.48 545.26 933.19A422.5 422.5 0 0 1 478.74 933.19Q470.77 932.48 469.01 924.68L455.61 865.45Q453.85 857.64 445.98 856.23A350.5 350.5 0 0 1 421.28 850.56A350.5 350.5 0 0 1 397.07 843.12Q389.54 840.41 384.11 846.29L342.89 890.89Q337.46 896.76 330.21 893.39A422.5 422.5 0 0 1 272.6 860.13Q266.05 855.54 268.43 847.9L286.45 789.9Q288.82 782.26 282.71 777.1A350.5 350.5 0 0 1 264.16 759.84A350.5 350.5 0 0 1 246.9 741.29Q241.74 735.18 234.1 737.55L176.1 755.57Q168.46 757.95 163.87 751.4A422.5 422.5 0 0 1 130.61 693.79Q127.24 686.54 133.11 681.11L177.71 639.89Q183.59 634.46 180.88 626.93A350.5 350.5 0 0 1 173.44 602.72A350.5 350.5 0 0 1 167.77 578.02Q166.36 570.15 158.55 568.39L99.32 554.99Q91.52 553.23 90.81 545.26A422.5 422.5 0 0 1 90.81 478.74Q91.52 470.77 99.32 469.01L158.55 455.61Q166.36 453.85 167.77 445.98A350.5 350.5 0 0 1 173.44 421.28A350.5 350.5 0 0 1 180.88 397.07Q183.59 389.54 177.71 384.11L133.11 342.89Q127.24 337.46 130.61 330.21A422.5 422.5 0 0 1 163.87 272.6Q168.46 266.05 176.1 268.43L234.1 286.45Q241.74 288.82 246.9 282.71A350.5 350.5 0 0 1 264.16 264.16A350.5 350.5 0 0 1 282.71 246.9Q288.82 241.74 286.45 234.1L268.43 176.1Q266.05 168.46 272.6 163.87A422.5 422.5 0 0 1 330.21 130.61Q337.46 127.24 342.89 133.11L384.11 177.71Q389.54 183.59 397.07 180.88A350.5 350.5 0 0 1 421.28 173.44A350.5 350.5 0 0 1 445.98 167.77Q453.85 166.36 455.61 158.55L469.01 99.32Q470.77 91.52 478.74 90.81A422.5 422.5 0 0 1 545.26 90.81Q553.23 91.52 554.99 99.32L568.39 158.55Q570.15 166.36 578.02 167.77A350.5 350.5 0 0 1 602.72 173.44A350.5 350.5 0 0 1 626.93 180.88Q634.46 183.59 639.89 177.71L681.11 133.11Q686.54 127.24 693.79 130.61A422.5 422.5 0 0 1 751.4 163.87Q757.95 168.46 755.57 176.1L737.55 234.1Q735.18 241.74 741.29 246.9A350.5 350.5 0 0 1 759.84 264.16A350.5 350.5 0 0 1 777.1 282.71Q782.26 288.82 789.9 286.45L847.9 268.43Q855.54 266.05 860.13 272.6A422.5 422.5 0 0 1 893.39 330.21Q896.76 337.46 890.89 342.89L846.29 384.11Q840.41 389.54 843.12 397.07A350.5 350.5 0 0 1 850.56 421.28ZM808 512 A296 296 0 1 0 216 512 A296 296 0 1 0 808 512 ZM612 512 A100 100 0 1 1 412 512 A100 100 0 1 1 612 512 ZM564 512 A52 52 0 1 0 460 512 A52 52 0 1 0 564 512 ZM603.64 545.28L780.31 647.28L763.31 676.72L586.64 574.72ZM529 608L529 812L495 812L495 608ZM437.36 574.72L260.69 676.72L243.69 647.28L420.36 545.28ZM420.36 478.72L243.69 376.72L260.69 347.28L437.36 449.28ZM495 416L495 212L529 212L529 416ZM586.64 449.28L763.31 347.28L780.31 376.72L603.64 478.72ZM596 512 A8 8 0 1 0 580 512 A8 8 0 1 0 596 512 ZM558 577.82 A8 8 0 1 0 542 577.82 A8 8 0 1 0 558 577.82 ZM482 577.82 A8 8 0 1 0 466 577.82 A8 8 0 1 0 482 577.82 ZM444 512 A8 8 0 1 0 428 512 A8 8 0 1 0 444 512 ZM482 446.18 A8 8 0 1 0 466 446.18 A8 8 0 1 0 482 446.18 ZM558 446.18 A8 8 0 1 0 542 446.18 A8 8 0 1 0 558 446.18 ZM520 464L520 448L504 448L504 464Z"/><circle cx="512" cy="512" r="342" fill="none" stroke="rgba(60,26,5,.22)" stroke-width="2.5"/><circle cx="512" cy="512" r="305" fill="none" stroke="rgba(255,235,210,.14)" stroke-width="2"/><circle cx="512" cy="512" r="95" fill="none" stroke="rgba(60,26,5,.2)" stroke-width="2"/></svg>