<svg xmlns="http://www.w3.org/2000/svg" viewBox="0 0 1024 1024"><defs><radialGradient id="pxface" cx="50%" cy="50%" r="72%"><stop offset="0" stop-color="#F49A47"/><stop offset=".55" stop-color="#EE8731"/><stop offset="1" stop-color="#D96F22"/></radialGradient></defs><path fill="url(#pxface)" fill-rule="nonzero" stroke="rgba(72,32,6,.38)" stroke-width="2.5" d="M894.51 435.91A390 390 0 0 1 897.64 453.85Q898.75 461.77 906.57 463.48L954.73 474.04Q962.54 475.75 963.12 483.73A452 452 0 0 1 963.12 540.27Q962.54 548.25 954.73 549.96L906.57 560.52Q898.75 562.23 897.64 570.15A390 390 0 0 1 894.51 588.09A390 390 0 0 1 890.54 605.85Q888.53 613.6 895.1 618.17L935.56 646.35Q942.12 650.93 939.59 658.52A452 452 0 0 1 917.96 710.75Q914.38 717.91 906.5 716.5L857.96 707.82Q850.09 706.41 846.03 713.3A390 390 0 0 1 836.27 728.67A390 390 0 0 1 825.81 743.57Q820.99 749.96 825.31 756.69L851.9 798.21Q856.22 804.95 850.98 811A452 452 0 0 1 811 850.98Q804.95 856.22 798.21 851.9L756.69 825.31Q749.96 820.99 743.57 825.81A390 390 0 0 1 728.67 836.27A390 390 0 0 1 713.3 846.03Q706.41 850.09 707.82 857.96L716.5 906.5Q717.91 914.38 710.75 917.96A452 452 0 0 1 658.52 939.59Q650.93 942.12 646.35 935.56L618.17 895.1Q613.6 888.53 605.85 890.54A390 390 0 0 1 588.09 894.51A390 390 0 0 1 570.15 897.64Q562.23 898.75 560.52 906.57L549.96 954.73Q548.25 962.54 540.27 963.12A452 452 0 0 1 483.73 963.12Q475.75 962.54 474.04 954.73L463.48 906.57Q461.77 898.75 453.85 897.64A390 390 0 0 1 435.91 894.51A390 390 0 0 1 418.15 890.54Q410.4 888.53 405.83 895.1L377.65 935.56Q373.07 942.12 365.48 939.59A452 452 0 0 1 313.25 917.96Q306.09 914.38 307.5 906.5L316.18 857.96Q317.59 850.09 310.7 846.03A390 390 0 0 1 295.33 836.27A390 390 0 0 1 280.43 825.81Q274.04 820.99 267.31 825.31L225.79 851.9Q219.05 856.22 213 850.98A452 452 0 0 1 173.02 811Q167.78 804.95 172.1 798.21L198.69 756.69Q203.01 749.96 198.19 743.57A390 390 0 0 1 187.73 728.67A390 390 0 0 1 177.97 713.3Q173.91 706.41 166.04 707.82L117.5 716.5Q109.62 717.91 106.04 710.75A452 452 0 0 1 84.41 658.52Q81.88 650.93 88.44 646.35L128.9 618.17Q135.47 613.6 133.46 605.85A390 390 0 0 1 129.49 588.09A390 390 0 0 1 126.36 570.15Q125.25 562.23 117.43 560.52L69.27 549.96Q61.46 548.25 60.88 540.27A452 452 0 0 1 60.88 483.73Q61.46 475.75 69.27 474.04L117.43 463.48Q125.25 461.77 126.36 453.85A390 390 0 0 1 129.49 435.91A390 390 0 0 1 133.46 418.15Q135.47 410.4 128.9 405.83L88.44 377.65Q81.88 373.07 84.41 365.48A452 452 0 0 1 106.04 313.25Q109.62 306.09 117.5 307.5L166.04 316.18Q173.91 317.59 177.97 310.7A390 390 0 0 1 187.73 295.33A390 390 0 0 1 198.19 280.43Q203.01 274.04 198.69 267.31L172.1 225.79Q167.78 219.05 173.02 213A452 452 0 0 1 213 173.02Q219.05 167.78 225.79 172.1L267.31 198.69Q274.04 203.01 280.43 198.19A390 390 0 0 1 295.33 187.73A390 390 0 0 1 310.7 177.97Q317.59 173.91 316.18 166.04L307.5 117.5Q306.09 109.62 313.25 106.04A452 452 0 0 1 365.48 84.41Q373.07 81.88 377.65 88.44L405.83 128.9Q410.4 135.47 418.15 133.46A390 390 0 0 1 435.91 129.49A390 390 0 0 1 453.85 126.36Q461.77 125.25 463.48 117.43L474.04 69.27Q475.75 61.46 483.73 60.88A452 452 0 0 1 540.27 60.88Q548.25 61.46 549.96 69.27L560.52 117.43Q562.23 125.25 570.15 126.36A390 390 0 0 1 588.09 129.49A390 390 0 0 1 605.85 133.46Q613.6 135.47 618.17 128.9L646.35 88.44Q650.93 81.88 658.52 84.41A452 452 0 0 1 710.75 106.04Q717.91 109.62 716.5 117.5L707.82 166.04Q706.41 173.91 713.3 177.97A390 390 0 0 1 728.67 187.73A390 390 0 0 1 743.57 198.19Q749.96 203.01 756.69 198.69L798.21 172.1Q804.95 167.78 811 173.02A452 452 0 0 1 850.98 213Q856.22 219.05 851.9 225.79L825.31 267.31Q820.99 274.04 825.81 280.43A390 390 0 0 1 836.27 295.33A390 390 0 0 1 846.03 310.7Q850.09 317.59 857.96 316.18L906.5 307.5Q914.38 306.09 917.96 313.25A452 452 0 0 1 939.59 365.48Q942.12 373.07 935.56 377.65L895.1 405.83Q888.53 410.4 890.54 418.15A390 390 0 0 1 894.51 435.91ZM858 512 A346 346 0 1 0 166 512 A346 346 0 1 0 858 512 ZM840 512 A328 328 0 1 1 184 512 A328 328 0 1 1 840 512 ZM788 512 A276 276 0 1 0 236 512 A276 276 0 1 0 788 512 ZM606.28 555.21L744.17 670.91L708.82 713.05L570.93 597.34ZM468.79 606.28L353.09 744.17L310.95 708.82L426.66 570.93ZM417.72 468.79L279.83 353.09L315.18 310.95L453.07 426.66ZM555.21 417.72L670.91 279.83L713.05 315.18L597.34 453.07ZM618 512 A106 106 0 1 1 406 512 A106 106 0 1 1 618 512 ZM549 512 A37 37 0 1 0 475 512 A37 37 0 1 0 549 512 ZM519 479L519 464L505 464L505 479Z"/><circle cx="512" cy="512" r="414" fill="none" stroke="rgba(60,26,5,.2)" stroke-width="2.5"/><circle cx="512" cy="512" r="302" fill="none" stroke="rgba(255,235,210,.13)" stroke-width="2"/><circle cx="512" cy="512" r="99" fill="none" stroke="rgba(60,26,5,.2)" stroke-width="2"/></svg>