<svg xmlns="http://www.w3.org/2000/svg" viewBox="0 0 1024 1024"><defs><radialGradient id="pxface" cx="50%" cy="50%" r="72%"><stop offset="0" stop-color="#F49A47"/><stop offset=".55" stop-color="#EE8731"/><stop offset="1" stop-color="#D96F22"/></radialGradient></defs><path fill="url(#pxface)" fill-rule="nonzero" stroke="rgba(72,32,6,.38)" stroke-width="2.5" d="M914.65 420.1A413 413 0 0 1 919.08 442.34Q920.36 450.24 928.11 452.2L984.26 466.36Q992.02 468.32 992.68 476.29A482 482 0 0 1 992.68 547.71Q992.02 555.68 984.26 557.64L928.11 571.8Q920.36 573.76 919.08 581.66A413 413 0 0 1 914.65 603.9A413 413 0 0 1 908.99 625.87Q906.71 633.54 912.85 638.67L957.29 675.78Q963.43 680.91 960.57 688.38A482 482 0 0 1 929.58 752.73Q925.53 759.63 917.69 758.03L860.96 746.42Q853.12 744.82 848.55 751.38A413 413 0 0 1 834.9 769.5A413 413 0 0 1 820.27 786.84Q814.89 792.76 818.2 800.04L842.13 852.77Q845.44 860.05 839.62 865.54A482 482 0 0 1 783.78 910.07Q777.13 914.53 770.76 909.68L724.69 874.62Q718.32 869.77 711.35 873.7A413 413 0 0 1 691.19 884.1A413 413 0 0 1 670.49 893.38Q663.08 896.38 662.9 904.37L661.58 962.26Q661.4 970.26 653.78 972.68A482 482 0 0 1 584.14 988.57Q576.22 989.7 572.59 982.57L546.29 930.99Q542.66 923.86 534.67 924.38A413 413 0 0 1 512 925A413 413 0 0 1 489.33 924.38Q481.34 923.86 477.71 930.99L451.41 982.57Q447.78 989.7 439.86 988.57A482 482 0 0 1 370.22 972.68Q362.6 970.26 362.42 962.26L361.1 904.37Q360.92 896.38 353.51 893.38A413 413 0 0 1 332.81 884.1A413 413 0 0 1 312.65 873.7Q305.68 869.77 299.31 874.62L253.24 909.68Q246.87 914.53 240.22 910.07A482 482 0 0 1 184.38 865.54Q178.56 860.05 181.87 852.77L205.8 800.04Q209.11 792.76 203.73 786.84A413 413 0 0 1 189.1 769.5A413 413 0 0 1 175.45 751.38Q170.88 744.82 163.04 746.42L106.31 758.03Q98.47 759.63 94.42 752.73A482 482 0 0 1 63.43 688.38Q60.57 680.91 66.71 675.78L111.15 638.67Q117.29 633.54 115.01 625.87A413 413 0 0 1 109.35 603.9A413 413 0 0 1 104.92 581.66Q103.64 573.76 95.89 571.8L39.74 557.64Q31.98 555.68 31.32 547.71A482 482 0 0 1 31.32 476.29Q31.98 468.32 39.74 466.36L95.89 452.2Q103.64 450.24 104.92 442.34A413 413 0 0 1 109.35 420.1A413 413 0 0 1 115.01 398.13Q117.29 390.46 111.15 385.33L66.71 348.22Q60.57 343.09 63.43 335.62A482 482 0 0 1 94.42 271.27Q98.47 264.37 106.31 265.97L163.04 277.58Q170.88 279.18 175.45 272.62A413 413 0 0 1 189.1 254.5A413 413 0 0 1 203.73 237.16Q209.11 231.24 205.8 223.96L181.87 171.23Q178.56 163.95 184.38 158.46A482 482 0 0 1 240.22 113.93Q246.87 109.47 253.24 114.32L299.31 149.38Q305.68 154.23 312.65 150.3A413 413 0 0 1 332.81 139.9A413 413 0 0 1 353.51 130.62Q360.92 127.62 361.1 119.63L362.42 61.74Q362.6 53.74 370.22 51.32A482 482 0 0 1 439.86 35.43Q447.78 34.3 451.41 41.43L477.71 93.01Q481.34 100.14 489.33 99.62A413 413 0 0 1 512 99A413 413 0 0 1 534.67 99.62Q542.66 100.14 546.29 93.01L572.59 41.43Q576.22 34.3 584.14 35.43A482 482 0 0 1 653.78 51.32Q661.4 53.74 661.58 61.74L662.9 119.63Q663.08 127.62 670.49 130.62A413 413 0 0 1 691.19 139.9A413 413 0 0 1 711.35 150.3Q718.32 154.23 724.69 149.38L770.76 114.32Q777.13 109.47 783.78 113.93A482 482 0 0 1 839.62 158.46Q845.44 163.95 842.13 171.23L818.2 223.96Q814.89 231.24 820.27 237.16A413 413 0 0 1 834.9 254.5A413 413 0 0 1 848.55 272.62Q853.12 279.18 860.96 277.58L917.69 265.97Q925.53 264.37 929.58 271.27A482 482 0 0 1 960.57 335.62Q963.43 343.09 957.29 348.22L912.85 385.33Q906.71 390.46 908.99 398.13A413 413 0 0 1 914.65 420.1ZM640 512 A128 128 0 1 0 384 512 A128 128 0 1 0 640 512 ZM547 745 A35 35 0 1 0 477 745 A35 35 0 1 0 547 745 ZM325.4 584 A35 35 0 1 0 255.4 584 A35 35 0 1 0 325.4 584 ZM410.05 323.5 A35 35 0 1 0 340.05 323.5 A35 35 0 1 0 410.05 323.5 ZM683.95 323.5 A35 35 0 1 0 613.95 323.5 A35 35 0 1 0 683.95 323.5 ZM768.6 584 A35 35 0 1 0 698.6 584 A35 35 0 1 0 768.6 584 ZM522 388L522 369L502 369L502 388Z"/><circle cx="512" cy="512" r="436" fill="none" stroke="rgba(60,26,5,.2)" stroke-width="2.5"/><circle cx="512" cy="512" r="300" fill="none" stroke="rgba(255,235,210,.12)" stroke-width="2"/><circle cx="512" cy="512" r="168" fill="none" stroke="rgba(60,26,5,.18)" stroke-width="2"/><circle cx="512" cy="512" r="388" fill="none" stroke="rgba(60,26,5,.16)" stroke-width="1.5"/></svg>